<?xml version="1.0" encoding="utf-8"?>
<!-- Generator: Adobe Illustrator 27.2.0, SVG Export Plug-In . SVG Version: 6.00 Build 0)  -->
<svg version="1.1" id="Layer_1" xmlns="http://www.w3.org/2000/svg" xmlns:xlink="http://www.w3.org/1999/xlink" x="0px" y="0px"
	 viewBox="0 0 605.2 356.9" style="enable-background:new 0 0 605.2 356.9;" xml:space="preserve">
<style type="text/css">
	.st0{fill:#23356E;stroke:#000000;stroke-miterlimit:10;}
	.st1{fill:#44B2E5;stroke:#000000;stroke-miterlimit:10;}
	.st2{fill:url(#SVGID_1_);}
	.st3{fill:url(#SVGID_00000044874493676294631990000017973782861980870073_);}
	.st4{fill:#FFD522;stroke:#000000;stroke-miterlimit:10;}
	.st5{fill:#EF770A;stroke:#000000;stroke-miterlimit:10;}
	.st6{fill:#FC85FF;stroke:#000000;stroke-miterlimit:10;}
	.st7{fill:url(#SVGID_00000111190364931778481910000002155106135593842585_);stroke:#000000;stroke-miterlimit:10;}
	.st8{fill:#92D3EA;}
</style>
<rect x="47.5" y="-351.9" class="st0" width="44.9" height="44.9"/>
<rect x="47.5" y="-277.3" class="st1" width="44.9" height="44.9"/>
<linearGradient id="SVGID_1_" gradientUnits="userSpaceOnUse" x1="172.3542" y1="-353.3596" x2="323.8542" y2="-353.3596" gradientTransform="matrix(2.832769e-16 1 1 -2.832769e-16 637.4766 -780.4077)">
	<stop  offset="0" style="stop-color:#44B2E5"/>
	<stop  offset="0.2297" style="stop-color:#3E91C2"/>
	<stop  offset="0.7442" style="stop-color:#2B5385"/>
	<stop  offset="1" style="stop-color:#23356E"/>
</linearGradient>
<polygon class="st2" points="95.1,-456.6 95.1,-608.1 473.2,-608.1 473.2,-456.6 "/>
<linearGradient id="SVGID_00000094619659271208171790000003732750948458896318_" gradientUnits="userSpaceOnUse" x1="98.2686" y1="-267.0864" x2="285.6685" y2="-267.0864" gradientTransform="matrix(6.123234e-17 -1 -1 -6.123234e-17 17.0307 -509.7849)">
	<stop  offset="0" style="stop-color:#44B2E5"/>
	<stop  offset="0.4553" style="stop-color:#3396D3"/>
	<stop  offset="1" style="stop-color:#1C75BC"/>
</linearGradient>
<polygon style="fill:url(#SVGID_00000094619659271208171790000003732750948458896318_);" points="473.2,-795.5 473.2,-608.1 
	95.1,-608.1 95.1,-795.5 "/>
<rect x="121.6" y="-351.4" class="st4" width="44" height="44"/>
<rect x="121.6" y="-276.8" class="st5" width="44" height="44"/>
<rect x="203.2" y="-318.4" class="st6" width="44.9" height="48.3"/>
<linearGradient id="SVGID_00000124881198943131689750000003516869597451151502_" gradientUnits="userSpaceOnUse" x1="252.7655" y1="-372.8964" x2="354.1588" y2="-372.8964" gradientTransform="matrix(-1.608123e-16 1 -1 -1.608123e-16 -43.9371 -642.8336)">
	<stop  offset="0" style="stop-color:#FFD522"/>
	<stop  offset="6.907967e-02" style="stop-color:#FED021"/>
	<stop  offset="0.1512" style="stop-color:#FCC21D"/>
	<stop  offset="0.2399" style="stop-color:#F8AA17"/>
	<stop  offset="0.3326" style="stop-color:#F2880E"/>
	<stop  offset="0.3743" style="stop-color:#EF770A"/>
	<stop  offset="0.919" style="stop-color:#EF770A"/>
	<stop  offset="1" style="stop-color:#FC85FF"/>
</linearGradient>
<polygon style="fill:url(#SVGID_00000124881198943131689750000003516869597451151502_);stroke:#000000;stroke-miterlimit:10;" points="
	256.6,-288.7 256.6,-390.1 401.3,-390.1 401.3,-288.7 "/>
<circle class="st8" cx="116.7" cy="75.7" r="35.8"/>
<circle class="st8" cx="88.9" cy="108.8" r="41.6"/>
<ellipse class="st8" cx="86.8" cy="145.8" rx="86.7" ry="47"/>
<ellipse class="st8" cx="184.8" cy="128.3" rx="61.2" ry="42.3"/>
<ellipse class="st8" cx="215.9" cy="104.5" rx="94.3" ry="45.8"/>
<ellipse class="st8" cx="189.5" cy="57.9" rx="68.6" ry="57.9"/>
<circle class="st8" cx="346.1" cy="272.8" r="80"/>
<circle class="st8" cx="451.9" cy="253.3" r="91.6"/>
<ellipse class="st8" cx="432.4" cy="192.8" rx="93.1" ry="88.8"/>
<circle class="st8" cx="545.4" cy="230.4" r="98.7"/>
<line class="st8" x1="0" y1="0" x2="0" y2="174.7"/>
</svg>
