<?xml version="1.0" encoding="iso-8859-1"?>
<!-- Generator: Adobe Illustrator 27.2.0, SVG Export Plug-In . SVG Version: 6.00 Build 0)  -->
<svg version="1.1" id="Layer_1" xmlns="http://www.w3.org/2000/svg" xmlns:xlink="http://www.w3.org/1999/xlink" x="0px" y="0px"
	 viewBox="0 0 1064 768" style="enable-background:new 0 0 1064 768;" xml:space="preserve">
<path style="fill:#020000;" d="M149,232c0,0-52,40-118,5c0,0,32,6,56-29c0,0-62-3-87-51c72,8,65-4,65-4s-37-47-25-99
	c14,49,47,46,56,39s51-93,51-93l49,91c0,0,43,21,56-38c0,0,20,27-23,101c44,13,62-4,62-4s11,39-79,60c20,30,55,28,55,28
	S182,266,149,232z"/>
</svg>
