<?xml version="1.0" encoding="utf-8"?>
<!-- Generator: Adobe Illustrator 27.2.0, SVG Export Plug-In . SVG Version: 6.00 Build 0)  -->
<svg version="1.1" xmlns="http://www.w3.org/2000/svg" xmlns:xlink="http://www.w3.org/1999/xlink" x="0px" y="0px"
	 viewBox="0 0 612 792" style="enable-background:new 0 0 612 792;" xml:space="preserve">
<style type="text/css">
	.st0{fill:#FFFFFF;stroke:#000000;stroke-miterlimit:10;}
	.st1{fill:none;stroke:#ED2124;stroke-miterlimit:10;}
</style>
<g id="Layer_1">
	<path class="st0" d="M64.4,14.3h325.8c0,0,77.9,134.1,0,268.3c-169.6-134.1-325.8,0-325.8,0S-37.8,148.4,64.4,14.3z"/>
</g>
<g id="Layer_2">
</g>
<g id="Layer_3">
	<path class="st1" d="M120.2,351.1c0,0-39.2,89.7,44.6,89.7c82.9,0,40.5-89.7,40.5-89.7S164.8,373.9,120.2,351.1z"/>
	<path class="st1" d="M111.2,384.7c0,0,53.7,36.4,104.3,0"/>
	<path class="st1" d="M212.3,369.4c0,0-43.1,29.8-98,0"/>
	<line class="st1" x1="184" y1="358.8" x2="189.9" y2="397.5"/>
	<line class="st1" x1="135.8" y1="395.7" x2="142.1" y2="359.1"/>
	<line class="st1" x1="163.6" y1="361.5" x2="164" y2="401.2"/>
</g>
</svg>
